PathFileType	4	(X/Y/Z)	/Users/itak/Documents/Research/Walk-IL/dataset/trc/00292_00010.trc
DataRate	CameraRate	NumFrames	NumMarkers	Units	OrigDataRate	OrigDataStartFrame	OrigNumFrames
100.000000	100.000000	4	54	mm	100.000000	489	653
Frame#	Time	RPSI			LPSI			L3			STRN			T10			C7			CLAV			RBAK			LBAK			LSHO			LUPA			LAEL			LAOL			LWTS			LWPS			LFRA			LHPS			LHTS			RSHO			RUPA			RAEL			RAOL			RWTS			RWPS			RFRA			RIFD			RHPS			RBHD			LFHD			RFHD			LBHD			LHIP			RHIP			RASI			LASI			LKNE			LTHI			LANK			LTIP			LTOE			LMT1			LMT5			LHEE			RKNE			RTHI			RANK			RTIP			RTOE			RMT1			RMT5			RHEE			RHTS			LIFD			*53			
		X1	Y1	Z1	X2	Y2	Z2	X3	Y3	Z3	X4	Y4	Z4	X5	Y5	Z5	X6	Y6	Z6	X7	Y7	Z7	X8	Y8	Z8	X9	Y9	Z9	X10	Y10	Z10	X11	Y11	Z11	X12	Y12	Z12	X13	Y13	Z13	X14	Y14	Z14	X15	Y15	Z15	X16	Y16	Z16	X17	Y17	Z17	X18	Y18	Z18	X19	Y19	Z19	X20	Y20	Z20	X21	Y21	Z21	X22	Y22	Z22	X23	Y23	Z23	X24	Y24	Z24	X25	Y25	Z25	X26	Y26	Z26	X27	Y27	Z27	X28	Y28	Z28	X29	Y29	Z29	X30	Y30	Z30	X31	Y31	Z31	X32	Y32	Z32	X33	Y33	Z33	X34	Y34	Z34	X35	Y35	Z35	X36	Y36	Z36	X37	Y37	Z37	X38	Y38	Z38	X39	Y39	Z39	X40	Y40	Z40	X41	Y41	Z41	X42	Y42	Z42	X43	Y43	Z43	X44	Y44	Z44	X45	Y45	Z45	X46	Y46	Z46	X47	Y47	Z47	X48	Y48	Z48	X49	Y49	Z49	X50	Y50	Z50	X51	Y51	Z51	X52	Y52	Z52	X53	Y53	Z53	X54	Y54	Z54	

490	4.89	421.5664978027344	988.6357421875	172.1478271484375	591.2549438476562	977.6060180664062	215.1048889160156	497.1349487304688	1056.342529296875	205.2234497070312	455.7000122070312	1237.830688476562	450.7251281738281	490.3255310058594	1172.769775390625	186.04443359375	493.4111022949219	1419.599609375	233.2276611328125	466.968994140625	1336.685180664062	386.6081237792969	428.3494262695312	1280.140502929688	167.7499237060547	597.337158203125	1384.529174804688	231.7310485839844	638.2852172851562	1392.987426757812	328.0518493652344	718.5403442382812	1284.940307617188	290.3536682128906	738.5731201171875	1084.353637695312	256.8538818359375	676.3130493164062	1079.552612304688	196.5562286376953	704.2118530273438	850.4420776367188	297.1366577148438	764.1517333984375	846.9592895507812	259.7364807128906	752.6478271484375	980.5906372070312	252.8615417480469	761.4467163085938	759.4814453125	242.9722900390625	723.982421875	749.3026733398438	295.3595886230469	328.0677185058594	1394.865234375	271.1861572265625	263.7544555664062	1336.398193359375	252.7778167724609	211.3303375244141	1071.398803710938	234.7660522460938	304.3167114257812	1058.47314453125	218.1678466796875	252.6395416259766	929.086669921875	431.1103210449219	182.5207977294922	899.7774047851562	388.28955078125	196.2177581787109	1020.695739746094	279.690185546875	249.2649536132812	772.11083984375	531.1802978515625	182.9511413574219	816.180419921875	467.0885009765625	414.4934387207031	1588.273071289062	279.8398742675781	461.46826171875	1569.0341796875	487.4032287597656	375.0289916992188	1564.103881835938	449.88818359375	550.231689453125	1585.831909179688	335.9098815917969	668.1083984375	934.576171875	309.7722778320312	296.8248596191406	939.5514526367188	246.5586090087891	338.4761657714844	943.644287109375	378.7791748046875	586.1756591796875	948.669921875	428.8863220214844	612.8233032226562	508.6369934082031	529.475830078125	641.7628784179688	637.0972290039062	471.5472106933594	727.3517456054688	111.3380355834961	344.5415954589844	678.4025268554688	305.1231994628906	447.8630065917969	623.3695678710938	43.25370407104492	515.34423828125	604.1478881835938	41.0371208190918	436.520751953125	709.7490234375	71.95067596435547	458.4519653320312	683.8081665039062	112.3983917236328	284.0084838867188	386.4294738769531	466.5698547363281	309.289306640625	311.2336730957031	723.540771484375	316.09814453125	474.6287231445312	41.18960952758789	212.2002563476562	420.7856140136719	343.5932922363281	314.1136169433594	553.6952514648438	37.20813751220703	398.0398559570312	583.6740112304688	33.19581985473633	334.207275390625	467.3553466796875	32.29143905639648	318.2754211425781	515.1566772460938	36.87227630615234	154.6291351318359	229.2260437011719	844.3892211914062	514.4219970703125	707.2075805664062	670.1175537109375	256.6455383300781	nan	nan	nan	
491	4.9	424.4765319824219	988.5985107421875	178.7195892333984	593.3478393554688	977.7845458984375	224.8398590087891	498.7470703125	1056.898559570312	212.9409790039062	453.6497802734375	1238.027221679688	457.3876037597656	491.8316345214844	1172.989990234375	193.2938690185547	494.4460144042969	1419.818359375	240.6908874511719	466.012939453125	1336.718872070312	393.4097595214844	429.9962463378906	1280.42626953125	174.2239532470703	598.298828125	1384.505004882812	240.2204895019531	638.1912231445312	1392.910400390625	336.9937744140625	718.8506469726562	1285.1845703125	299.5081481933594	739.2109985351562	1084.778442382812	264.985107421875	677.3951416015625	1080.235717773438	204.2519989013672	704.36669921875	850.8612670898438	304.695068359375	764.7114868164062	847.3787841796875	267.9118041992188	753.319580078125	981.0794067382812	261.0233154296875	762.251953125	759.9149780273438	251.2256927490234	724.2969970703125	749.78515625	303.2408752441406	328.6744689941406	1395.2626953125	276.5796203613281	264.372314453125	1336.96630859375	257.5956115722656	211.1116638183594	1071.952880859375	240.6226654052734	304.1378173828125	1058.565307617188	224.5581512451172	251.3542327880859	932.6868896484375	439.2313842773438	181.4723968505859	902.8159790039062	396.7802734375	195.6966094970703	1021.973937988281	286.1015014648438	247.2933502197266	777.4707641601562	542.02880859375	181.5965881347656	820.4739990234375	477.0708923339844	415.0709533691406	1588.399291992188	287.3110046386719	460.5818176269531	1568.380737304688	495.13525390625	374.2982177734375	1563.681030273438	456.9410705566406	550.405517578125	1585.607543945312	344.3519287109375	668.6478271484375	935.1600341796875	320.9075622558594	298.3276672363281	939.5066528320312	250.8140563964844	337.5784912109375	944.0899658203125	384.318115234375	584.3888549804688	949.3556518554688	438.4077758789062	608.0443115234375	509.9444580078125	540.9027099609375	638.6228637695312	637.9278564453125	482.8918151855469	723.7141723632812	102.5567245483398	379.5284118652344	674.0018310546875	301.910888671875	470.7284240722656	612.0930786132812	45.17464065551758	549.21923828125	595.9688110351562	39.01446914672852	469.9288330078125	701.0098266601562	69.56343841552734	494.5661010742188	682.6824951171875	101.0825271606445	317.3382568359375	386.7605285644531	466.5517883300781	311.5941162109375	311.8677062988281	723.3782958984375	319.5897521972656	474.8166198730469	41.47067260742188	212.2429351806641	421.0074157714844	343.5087585449219	316.0969848632812	553.723876953125	37.16164398193359	398.0907897949219	583.7758178710938	33.08238220214844	334.2731628417969	467.4456481933594	32.38050842285156	318.3322448730469	515.282958984375	37.33427047729492	154.6590270996094	227.5334930419922	849.495849609375	523.9495239257812	707.9644165039062	670.5355834960938	264.4667053222656	nan	nan	nan	
492	4.91	427.2451171875	988.54052734375	185.4262084960938	595.29345703125	977.91845703125	234.5805206298828	500.283447265625	1057.30859375	220.7374877929688	451.5740966796875	1238.155151367188	464.0211181640625	493.3435668945312	1173.059448242188	200.6184844970703	495.4513244628906	1419.86376953125	248.1386413574219	465.0246887207031	1336.6806640625	400.1965942382812	431.6759033203125	1280.56591796875	180.7113342285156	599.232177734375	1384.377563476562	248.7401428222656	638.0252075195312	1392.7626953125	345.9586791992188	719.1057739257812	1285.34765625	308.7815551757812	739.82421875	1085.185424804688	273.430908203125	678.5048828125	1080.743041992188	212.1521453857422	704.533935546875	851.1967163085938	312.5043029785156	765.311767578125	847.7317504882812	276.3878784179688	754.0146484375	981.4913330078125	269.4588317871094	763.163330078125	760.28271484375	259.8051452636719	724.66796875	750.1915283203125	311.4052429199219	329.2897033691406	1395.545043945312	281.8804931640625	265.0089416503906	1337.4169921875	262.304931640625	210.9215698242188	1072.393920898438	246.2571105957031	304.0074768066406	1058.564208984375	230.7872924804688	250.0392303466797	936.0877685546875	447.0150146484375	180.5346069335938	905.6373901367188	404.946044921875	195.1683959960938	1023.098693847656	292.2457885742188	245.3369903564453	782.6092529296875	552.4133911132812	180.2443237304688	824.5365600585938	486.6029663085938	415.6292419433594	1588.421020507812	294.7570190429688	459.7005310058594	1567.636596679688	502.8310241699219	373.582275390625	1563.179565429688	463.9649658203125	550.5585327148438	1585.266845703125	352.7441711425781	669.0671997070312	935.6021118164062	331.9599914550781	299.7635803222656	939.4583129882812	255.2384796142578	336.71044921875	944.4464111328125	389.942138671875	582.6026000976562	949.8666381835938	447.8609313964844	603.4733276367188	510.9085998535156	551.7991943359375	635.5942993164062	638.4893188476562	493.7458801269531	718.5186767578125	94.26656341552734	414.735595703125	668.8636474609375	298.7870178222656	493.6004028320312	598.6567993164062	47.60747528076172	581.7874145507812	585.885009765625	37.70712661743164	502.2998352050781	690.2472534179688	67.55381774902344	530.1433715820312	680.254150390625	90.4632568359375	351.0194396972656	387.0048828125	466.5382080078125	313.8818969726562	312.4103088378906	723.2177734375	323.1033630371094	475.0095825195312	41.75556564331055	212.2729797363281	421.2297973632812	343.405029296875	318.0343627929688	553.76806640625	37.12596130371094	398.1459350585938	583.8618774414062	33.01547241210938	334.3458251953125	467.5196228027344	32.46768188476562	318.3830261230469	515.4088745117188	37.81539916992188	154.6899871826172	225.8114929199219	854.3543090820312	533.0465698242188	708.85546875	670.8611450195312	272.5731506347656	nan	nan	nan	
493	4.92	429.87158203125	988.4564208984375	192.2723236083984	597.0804443359375	977.9920654296875	244.3276824951172	501.7547302246094	1057.56787109375	228.5983581542969	449.4986572265625	1238.207275390625	470.6459045410156	494.8570556640625	1172.9609375	208.0245361328125	496.4281921386719	1419.724853515625	255.5744171142578	464.0210876464844	1336.565307617188	406.9792785644531	433.3833312988281	1280.54345703125	187.2313995361328	600.1332397460938	1384.131713867188	257.2898559570312	637.7899169921875	1392.532104492188	354.9408874511719	719.3057861328125	1285.41357421875	318.1718444824219	740.411376953125	1085.553833007812	282.2012634277344	679.639892578125	1081.062377929688	220.2673797607422	704.7386474609375	851.4315185546875	320.5762329101562	765.9605102539062	847.9984741210938	285.1559143066406	754.733642578125	981.8070068359375	278.1659240722656	764.1610717773438	760.5628662109375	268.6872253417969	725.0933837890625	750.4987182617188	319.8404846191406	329.9107360839844	1395.690673828125	287.1071166992188	265.6726989746094	1337.727294921875	266.9208068847656	210.7834777832031	1072.702514648438	251.6800231933594	303.938232421875	1058.455322265625	236.8686218261719	248.7037658691406	939.261474609375	454.4841003417969	179.7222442626953	908.2147827148438	412.7910766601562	194.6472625732422	1024.0458984375	298.1322326660156	243.3863372802734	787.4694213867188	562.3236694335938	178.8497314453125	828.34033203125	495.6515197753906	416.168212890625	1588.321411132812	302.17724609375	458.8224792480469	1566.7958984375	510.4937438964844	372.8779296875	1562.590454101562	470.9618530273438	550.692138671875	1584.795166015625	361.089111328125	669.3358764648438	935.8721313476562	342.92041015625	301.1224060058594	939.4070434570312	259.8300170898438	335.85546875	944.68798828125	395.6195068359375	580.79638671875	950.1838989257812	457.2496948242188	599.1409301757812	511.5399169921875	562.2176513671875	632.6920776367188	638.7811889648438	504.1515197753906	711.7708740234375	86.58934020996094	450.0057678222656	663.0140991210938	295.8418579101562	516.3759155273438	583.314697265625	50.60003280639648	612.9413452148438	574.08056640625	37.14745712280273	533.5243530273438	677.5960083007812	66.03221130371094	565.0259399414062	676.5009155273438	80.63939666748047	384.8903503417969	387.1440734863281	466.51416015625	316.1542053222656	312.8707885742188	723.0487670898438	326.6479797363281	475.2104797363281	42.03411483764648	212.2969207763672	421.4279479980469	343.2748718261719	319.9279479980469	553.8220825195312	37.09714508056641	398.2023010253906	583.9296264648438	32.99383544921875	334.4241333007812	467.5829772949219	32.55009460449219	318.42724609375	515.5431518554688	38.30288314819336	154.7235717773438	224.0484008789062	858.9130859375	541.716796875	709.8525390625	671.079345703125	280.9514465332031	nan	nan	nan	
